<svg id="Dots" xmlns="http://www.w3.org/2000/svg" width="537" height="546" viewBox="0 0 537 546">
  <defs>
    <style>
      .cls-1 {
        fill: #fffbe8;
      }

      .cls-1, .cls-2 {
        stroke: #000;
        stroke-width: 1px;
        fill-rule: evenodd;
      }
    </style>
  </defs>
  <path id="Rounded_Rectangle_1" data-name="Rounded Rectangle 1" class="cls-1" d="M87,20H447a70,70,0,0,1,70,70V450a70,70,0,0,1-70,70H87a70,70,0,0,1-70-70V90A70,70,0,0,1,87,20Z"/>
  <path class="cls-2" d="M145.521,79.839c33.8,0,61.208,28.739,61.208,64.191s-27.4,64.19-61.208,64.19-61.209-28.739-61.209-64.19S111.716,79.839,145.521,79.839Z"/>
  <path id="Ellipse_1_copy" data-name="Ellipse 1 copy" class="cls-2" d="M268.5,208.809c33.805,0,61.209,28.739,61.209,64.191s-27.4,64.191-61.209,64.191S207.291,308.452,207.291,273,234.7,208.809,268.5,208.809Z"/>
  <path id="Ellipse_1_copy_2" data-name="Ellipse 1 copy 2" class="cls-2" d="M391.479,337.78c33.805,0,61.209,28.739,61.209,64.19s-27.4,64.191-61.209,64.191-61.208-28.739-61.208-64.191S357.675,337.78,391.479,337.78Z"/>
</svg>
