<svg id="Dots" xmlns="http://www.w3.org/2000/svg" width="537" height="546" viewBox="0 0 537 546">
  <defs>
    <style>
      .cls-1 {
        fill: #fffbe8;
      }

      .cls-1, .cls-2 {
        stroke: #000;
        stroke-width: 1px;
        fill-rule: evenodd;
      }
    </style>
  </defs>
  <path id="Rounded_Rectangle_1" data-name="Rounded Rectangle 1" class="cls-1" d="M87,20H447a70,70,0,0,1,70,70V450a70,70,0,0,1-70,70H87a70,70,0,0,1-70-70V90A70,70,0,0,1,87,20Z"/>
  <path class="cls-2" d="M145.521,79.839c33.8,0,61.208,28.739,61.208,64.191s-27.4,64.19-61.208,64.19-61.209-28.739-61.209-64.19S111.716,79.839,145.521,79.839Z"/>
  <path id="Ellipse_1_copy" data-name="Ellipse 1 copy" class="cls-2" d="M146.031,334.281c33.81,0,61.219,28.738,61.219,64.188s-27.409,64.187-61.219,64.187-61.219-28.737-61.219-64.187S112.221,334.281,146.031,334.281Z"/>
  <path id="Ellipse_1_copy_2" data-name="Ellipse 1 copy 2" class="cls-2" d="M391.479,337.78c33.805,0,61.209,28.739,61.209,64.19s-27.4,64.191-61.209,64.191-61.208-28.739-61.208-64.191S357.675,337.78,391.479,337.78Z"/>
  <path id="Ellipse_1_copy_3" data-name="Ellipse 1 copy 3" class="cls-2" d="M391.984,84.844c33.8,0,61.2,28.737,61.2,64.187s-27.4,64.188-61.2,64.188-61.2-28.738-61.2-64.188S358.183,84.844,391.984,84.844Z"/>
</svg>
