<svg id="Dots" xmlns="http://www.w3.org/2000/svg" width="537" height="546" viewBox="0 0 537 546">
  <defs>
    <style>
      .cls-1 {
        fill: #fffbe8;
      }

      .cls-1, .cls-2 {
        stroke: #000;
        stroke-width: 1px;
        fill-rule: evenodd;
      }
    </style>
  </defs>
  <path id="Rounded_Rectangle_1" data-name="Rounded Rectangle 1" class="cls-1" d="M87,20H447a70,70,0,0,1,70,70V450a70,70,0,0,1-70,70H87a70,70,0,0,1-70-70V90A70,70,0,0,1,87,20Z"/>
  <path class="cls-2" d="M173.75,84.766c24.792,0,44.891,21.077,44.891,47.078s-20.1,47.078-44.891,47.078-44.891-21.078-44.891-47.078S148.958,84.766,173.75,84.766Z"/>
  <path id="Ellipse_1_copy" data-name="Ellipse 1 copy" class="cls-2" d="M173.75,230.984c24.792,0,44.891,21.078,44.891,47.078s-20.1,47.079-44.891,47.079-44.891-21.078-44.891-47.079S148.958,230.984,173.75,230.984Z"/>
  <path id="Ellipse_1_copy_2" data-name="Ellipse 1 copy 2" class="cls-2" d="M174.25,370.484c24.792,0,44.891,21.078,44.891,47.078s-20.1,47.079-44.891,47.079-44.891-21.078-44.891-47.079S149.458,370.484,174.25,370.484Z"/>
  <path id="Ellipse_1_copy_3" data-name="Ellipse 1 copy 3" class="cls-2" d="M362.75,81.391c24.792,0,44.891,21.077,44.891,47.078s-20.1,47.078-44.891,47.078-44.891-21.078-44.891-47.078S337.958,81.391,362.75,81.391Z"/>
  <path id="Ellipse_1_copy_3-2" data-name="Ellipse 1 copy 3" class="cls-2" d="M362.75,227.609c24.792,0,44.891,21.078,44.891,47.078s-20.1,47.079-44.891,47.079-44.891-21.078-44.891-47.079S337.958,227.609,362.75,227.609Z"/>
  <path id="Ellipse_1_copy_3-3" data-name="Ellipse 1 copy 3" class="cls-2" d="M363.25,367.109c24.792,0,44.891,21.078,44.891,47.078s-20.1,47.079-44.891,47.079-44.891-21.078-44.891-47.079S338.458,367.109,363.25,367.109Z"/>
</svg>
