<svg id="Group_1_copy_3" data-name="Group 1 copy 3" xmlns="http://www.w3.org/2000/svg" width="814" height="1080" viewBox="0 0 814 1080">
  <defs>
    <style>
      .cls-1 {
        fill: #7b7b7b;
        stroke: #000;
        stroke-width: 30px;
        fill-rule: evenodd;
      }
    </style>
  </defs>
  <path id="Polygon_1" data-name="Polygon 1" class="cls-1" d="M171.878,857.364L280.354,488.048l109.573,368.08Z"/>
  <path class="cls-1" d="M280.938,418.406c60.216,0,109.031,45.178,109.031,100.906S341.154,620.219,280.938,620.219,171.906,575.041,171.906,519.312,220.721,418.406,280.938,418.406Z"/>
  <path id="Polygon_1-2" data-name="Polygon 1" class="cls-1" d="M187.4,1072.48l257.243-875.8L704.489,1069.55Z"/>
  <path class="cls-1" d="M445.969,31.563c142.8,0,258.562,107.13,258.562,239.282S588.769,510.125,445.969,510.125,187.406,403,187.406,270.844,303.169,31.563,445.969,31.563Z"/>
  <path id="Polygon_1-3" data-name="Polygon 1" class="cls-1" d="M37.753,1076.9L146.229,707.58,255.8,1075.66Z"/>
  <path class="cls-1" d="M146.812,637.938c60.217,0,109.032,45.177,109.032,100.906S207.029,839.75,146.812,839.75,37.781,794.573,37.781,738.844,86.6,637.938,146.812,637.938Z"/>
  <path id="Polygon_1-4" data-name="Polygon 1" class="cls-1" d="M535.143,1061.8L658.075,643.268,782.249,1060.4Z"/>
  <path class="cls-1" d="M658.719,564.344c68.241,0,123.562,51.2,123.562,114.359S726.96,793.062,658.719,793.062,535.156,741.862,535.156,678.7,590.477,564.344,658.719,564.344Z"/>
</svg>
