<svg xmlns="http://www.w3.org/2000/svg" width="927" height="693" viewBox="0 0 927 693">
  <defs>
    <style>
      .cls-1 {
        fill: #fffbe8;
      }

      .cls-1, .cls-2 {
        stroke: #000;
        stroke-width: 1px;
        fill-rule: evenodd;
      }
    </style>
  </defs>
  <path id="Rounded_Rectangle_1" data-name="Rounded Rectangle 1" class="cls-1" d="M87,20H447a70,70,0,0,1,70,70V450a70,70,0,0,1-70,70H87a70,70,0,0,1-70-70V90A70,70,0,0,1,87,20Z"/>
  <g id="Dots">
    <path class="cls-2" d="M173.766,84.75c24.792,0,44.89,21.078,44.89,47.078s-20.1,47.078-44.89,47.078-44.891-21.077-44.891-47.078S148.973,84.75,173.766,84.75Z"/>
    <path id="Ellipse_1_copy" data-name="Ellipse 1 copy" class="cls-2" d="M173.766,230.969c24.792,0,44.89,21.077,44.89,47.078s-20.1,47.078-44.89,47.078-44.891-21.078-44.891-47.078S148.973,230.969,173.766,230.969Z"/>
    <path id="Ellipse_1_copy_2" data-name="Ellipse 1 copy 2" class="cls-2" d="M174.266,370.469c24.792,0,44.89,21.077,44.89,47.078s-20.1,47.078-44.89,47.078-44.891-21.078-44.891-47.078S149.473,370.469,174.266,370.469Z"/>
    <path id="Ellipse_1_copy_3" data-name="Ellipse 1 copy 3" class="cls-2" d="M362.766,81.375c24.792,0,44.89,21.078,44.89,47.078s-20.1,47.078-44.89,47.078-44.891-21.077-44.891-47.078S337.973,81.375,362.766,81.375Z"/>
    <path id="Ellipse_1_copy_3-2" data-name="Ellipse 1 copy 3" class="cls-2" d="M362.766,227.594c24.792,0,44.89,21.077,44.89,47.078s-20.1,47.078-44.89,47.078-44.891-21.078-44.891-47.078S337.973,227.594,362.766,227.594Z"/>
    <path id="Ellipse_1_copy_3-3" data-name="Ellipse 1 copy 3" class="cls-2" d="M363.266,367.094c24.792,0,44.89,21.077,44.89,47.078s-20.1,47.078-44.89,47.078-44.891-21.078-44.891-47.078S338.473,367.094,363.266,367.094Z"/>
  </g>
  <path id="Rounded_Rectangle_1-2" data-name="Rounded Rectangle 1" class="cls-1" d="M552.445,86.808l331.4,140.612a70,70,0,0,1,37.1,91.78L780.335,650.6a70,70,0,0,1-91.78,37.1l-331.4-140.611a70,70,0,0,1-37.1-91.781l140.612-331.4A70,70,0,0,1,552.445,86.808Z"/>
  <g id="Dots-2" data-name="Dots">
    <path id="Ellipse_1_copy_3-4" data-name="Ellipse 1 copy 3" class="cls-2" d="M697.879,480.665c28.582,12.127,41.442,46.257,28.724,76.231s-46.2,44.442-74.779,32.315-41.441-46.256-28.723-76.23S669.3,468.539,697.879,480.665Z"/>
    <path id="Ellipse_1_copy_4" data-name="Ellipse 1 copy 4" class="cls-2" d="M505.748,399.685c28.463,12.077,41.27,46.062,28.606,75.908s-46,44.253-74.465,32.176-41.269-46.061-28.606-75.908S477.286,387.609,505.748,399.685Z"/>
    <path id="Ellipse_1_copy_5" data-name="Ellipse 1 copy 5" class="cls-2" d="M644.771,330.051c28.456,12.073,41.258,46.055,28.6,75.9s-46,44.253-74.452,32.18-41.257-46.056-28.594-75.9S616.316,317.977,644.771,330.051Z"/>
    <path id="Ellipse_1_copy_6" data-name="Ellipse 1 copy 6" class="cls-2" d="M598.509,182.341c28.455,12.074,41.257,46.056,28.594,75.9s-46,44.253-74.452,32.18-41.257-46.056-28.594-75.9S570.053,170.268,598.509,182.341Z"/>
    <path id="Ellipse_1_copy_7" data-name="Ellipse 1 copy 7" class="cls-2" d="M794.135,265.887c28.455,12.074,41.257,46.055,28.594,75.9s-46,44.253-74.452,32.179-41.257-46.055-28.594-75.9S765.68,253.814,794.135,265.887Z"/>
  </g>
</svg>
