<svg id="Loudo" xmlns="http://www.w3.org/2000/svg" width="1080" height="1080" viewBox="0 0 1080 1080">
  <defs>
    <style>
      .cls-1, .cls-7 {
        fill: #fff;
      }

      .cls-1, .cls-10, .cls-11, .cls-12, .cls-13, .cls-14, .cls-15, .cls-16, .cls-17, .cls-18, .cls-19, .cls-2, .cls-3, .cls-4, .cls-5, .cls-6, .cls-7, .cls-8, .cls-9 {
        stroke: #000;
      }

      .cls-1, .cls-12, .cls-15, .cls-18, .cls-19, .cls-2, .cls-3, .cls-4, .cls-5, .cls-9 {
        stroke-width: 1px;
      }

      .cls-13, .cls-14, .cls-15, .cls-2 {
        fill: #f1ffa6;
      }

      .cls-3, .cls-6, .cls-8, .cls-9 {
        fill: #69ffc1;
      }

      .cls-10, .cls-11, .cls-12, .cls-4 {
        fill: #19b0d1;
      }

      .cls-16, .cls-17, .cls-18, .cls-5 {
        fill: #ff6969;
      }

      .cls-10, .cls-13, .cls-16, .cls-6 {
        stroke-width: 4.68px;
      }

      .cls-11, .cls-14, .cls-17, .cls-7, .cls-8 {
        stroke-width: 4px;
      }

      .cls-11, .cls-12, .cls-14, .cls-15, .cls-17, .cls-18, .cls-19, .cls-8, .cls-9 {
        fill-rule: evenodd;
      }
    </style>
  </defs>
  <g id="Boxes">
    <g id="Row1">
      <rect class="cls-1" width="72" height="72"/>
      <rect id="Rectangle_4_copy" data-name="Rectangle 4 copy" class="cls-1" x="72" width="72" height="72"/>
      <rect id="Rectangle_4_copy_2" data-name="Rectangle 4 copy 2" class="cls-1" x="144" width="72" height="72"/>
      <rect id="Rectangle_4_copy_2-2" data-name="Rectangle 4 copy 2" class="cls-1" x="216" width="72" height="72"/>
      <rect id="Rectangle_4_copy_3" data-name="Rectangle 4 copy 3" class="cls-1" x="288" width="72" height="72"/>
      <rect id="Rectangle_4_copy_3-2" data-name="Rectangle 4 copy 3" class="cls-1" x="360" width="72" height="72"/>
      <rect id="Rectangle_4_copy_3-3" data-name="Rectangle 4 copy 3" class="cls-1" x="432" width="72" height="72"/>
      <rect id="Rectangle_4_copy_3-4" data-name="Rectangle 4 copy 3" class="cls-1" x="504" width="72" height="72"/>
      <rect id="Rectangle_4_copy_4" data-name="Rectangle 4 copy 4" class="cls-1" x="576" width="72" height="72"/>
      <rect id="Rectangle_4_copy_4-2" data-name="Rectangle 4 copy 4" class="cls-1" x="648" width="72" height="72"/>
      <rect id="Rectangle_4_copy_4-3" data-name="Rectangle 4 copy 4" class="cls-1" x="720" width="72" height="72"/>
      <rect id="Rectangle_4_copy_4-4" data-name="Rectangle 4 copy 4" class="cls-1" x="792" width="72" height="72"/>
      <rect id="Rectangle_4_copy_4-5" data-name="Rectangle 4 copy 4" class="cls-1" x="864" width="72" height="72"/>
      <rect id="Rectangle_4_copy_4-6" data-name="Rectangle 4 copy 4" class="cls-1" x="936" width="72" height="72"/>
      <rect id="Rectangle_4_copy_4-7" data-name="Rectangle 4 copy 4" class="cls-1" x="1008" width="72" height="72"/>
    </g>
    <g id="Row2">
      <rect class="cls-1" y="72" width="72" height="72"/>
      <rect id="Rectangle_4_copy-2" data-name="Rectangle 4 copy" class="cls-1" x="72" y="72" width="72" height="72"/>
      <rect id="Rectangle_4_copy_2-3" data-name="Rectangle 4 copy 2" class="cls-1" x="144" y="72" width="72" height="72"/>
      <rect id="Rectangle_4_copy_2-4" data-name="Rectangle 4 copy 2" class="cls-1" x="216" y="72" width="72" height="72"/>
      <rect id="Rectangle_4_copy_3-5" data-name="Rectangle 4 copy 3" class="cls-1" x="288" y="72" width="72" height="72"/>
      <rect id="Rectangle_4_copy_3-6" data-name="Rectangle 4 copy 3" class="cls-1" x="360" y="72" width="72" height="72"/>
      <rect id="Rectangle_4_copy_3-7" data-name="Rectangle 4 copy 3" class="cls-1" x="432" y="72" width="72" height="72"/>
      <rect id="Rectangle_4_copy_3-8" data-name="Rectangle 4 copy 3" class="cls-2" x="504" y="72" width="72" height="72"/>
      <rect id="Rectangle_4_copy_4-8" data-name="Rectangle 4 copy 4" class="cls-2" x="576" y="72" width="72" height="72"/>
      <rect id="Rectangle_4_copy_4-9" data-name="Rectangle 4 copy 4" class="cls-1" x="648" y="72" width="72" height="72"/>
      <rect id="Rectangle_4_copy_4-10" data-name="Rectangle 4 copy 4" class="cls-1" x="720" y="72" width="72" height="72"/>
      <rect id="Rectangle_4_copy_4-11" data-name="Rectangle 4 copy 4" class="cls-1" x="792" y="72" width="72" height="72"/>
      <rect id="Rectangle_4_copy_4-12" data-name="Rectangle 4 copy 4" class="cls-1" x="864" y="72" width="72" height="72"/>
      <rect id="Rectangle_4_copy_4-13" data-name="Rectangle 4 copy 4" class="cls-1" x="936" y="72" width="72" height="72"/>
      <rect id="Rectangle_4_copy_4-14" data-name="Rectangle 4 copy 4" class="cls-1" x="1008" y="72" width="72" height="72"/>
    </g>
    <g id="Row3">
      <rect class="cls-1" y="144" width="72" height="72"/>
      <rect id="Rectangle_4_copy-3" data-name="Rectangle 4 copy" class="cls-1" x="72" y="144" width="72" height="72"/>
      <rect id="Rectangle_4_copy_2-5" data-name="Rectangle 4 copy 2" class="cls-1" x="144" y="144" width="72" height="72"/>
      <rect id="Rectangle_4_copy_2-6" data-name="Rectangle 4 copy 2" class="cls-1" x="216" y="144" width="72" height="72"/>
      <rect id="Rectangle_4_copy_3-9" data-name="Rectangle 4 copy 3" class="cls-1" x="288" y="144" width="72" height="72"/>
      <rect id="Rectangle_4_copy_3-10" data-name="Rectangle 4 copy 3" class="cls-1" x="360" y="144" width="72" height="72"/>
      <rect id="Rectangle_4_copy_3-11" data-name="Rectangle 4 copy 3" class="cls-1" x="432" y="144" width="72" height="72"/>
      <rect id="Rectangle_4_copy_3-12" data-name="Rectangle 4 copy 3" class="cls-2" x="504" y="144" width="72" height="72"/>
      <rect id="Rectangle_4_copy_4-15" data-name="Rectangle 4 copy 4" class="cls-1" x="576" y="144" width="72" height="72"/>
      <rect id="Rectangle_4_copy_4-16" data-name="Rectangle 4 copy 4" class="cls-1" x="648" y="144" width="72" height="72"/>
      <rect id="Rectangle_4_copy_4-17" data-name="Rectangle 4 copy 4" class="cls-1" x="720" y="144" width="72" height="72"/>
      <rect id="Rectangle_4_copy_4-18" data-name="Rectangle 4 copy 4" class="cls-1" x="792" y="144" width="72" height="72"/>
      <rect id="Rectangle_4_copy_4-19" data-name="Rectangle 4 copy 4" class="cls-1" x="864" y="144" width="72" height="72"/>
      <rect id="Rectangle_4_copy_4-20" data-name="Rectangle 4 copy 4" class="cls-1" x="936" y="144" width="72" height="72"/>
      <rect id="Rectangle_4_copy_4-21" data-name="Rectangle 4 copy 4" class="cls-1" x="1008" y="144" width="72" height="72"/>
    </g>
    <g id="Row4">
      <rect class="cls-1" y="216" width="72" height="72"/>
      <rect id="Rectangle_4_copy-4" data-name="Rectangle 4 copy" class="cls-1" x="72" y="216" width="72" height="72"/>
      <rect id="Rectangle_4_copy_2-7" data-name="Rectangle 4 copy 2" class="cls-1" x="144" y="216" width="72" height="72"/>
      <rect id="Rectangle_4_copy_2-8" data-name="Rectangle 4 copy 2" class="cls-1" x="216" y="216" width="72" height="72"/>
      <rect id="Rectangle_4_copy_3-13" data-name="Rectangle 4 copy 3" class="cls-1" x="288" y="216" width="72" height="72"/>
      <rect id="Rectangle_4_copy_3-14" data-name="Rectangle 4 copy 3" class="cls-1" x="360" y="216" width="72" height="72"/>
      <rect id="Rectangle_4_copy_3-15" data-name="Rectangle 4 copy 3" class="cls-1" x="432" y="216" width="72" height="72"/>
      <rect id="Rectangle_4_copy_3-16" data-name="Rectangle 4 copy 3" class="cls-2" x="504" y="216" width="72" height="72"/>
      <rect id="Rectangle_4_copy_4-22" data-name="Rectangle 4 copy 4" class="cls-1" x="576" y="216" width="72" height="72"/>
      <rect id="Rectangle_4_copy_4-23" data-name="Rectangle 4 copy 4" class="cls-1" x="648" y="216" width="72" height="72"/>
      <rect id="Rectangle_4_copy_4-24" data-name="Rectangle 4 copy 4" class="cls-1" x="720" y="216" width="72" height="72"/>
      <rect id="Rectangle_4_copy_4-25" data-name="Rectangle 4 copy 4" class="cls-1" x="792" y="216" width="72" height="72"/>
      <rect id="Rectangle_4_copy_4-26" data-name="Rectangle 4 copy 4" class="cls-1" x="864" y="216" width="72" height="72"/>
      <rect id="Rectangle_4_copy_4-27" data-name="Rectangle 4 copy 4" class="cls-1" x="936" y="216" width="72" height="72"/>
      <rect id="Rectangle_4_copy_4-28" data-name="Rectangle 4 copy 4" class="cls-1" x="1008" y="216" width="72" height="72"/>
    </g>
    <g id="Row5">
      <rect class="cls-1" y="288" width="72" height="72"/>
      <rect id="Rectangle_4_copy-5" data-name="Rectangle 4 copy" class="cls-1" x="72" y="288" width="72" height="72"/>
      <rect id="Rectangle_4_copy_2-9" data-name="Rectangle 4 copy 2" class="cls-1" x="144" y="288" width="72" height="72"/>
      <rect id="Rectangle_4_copy_2-10" data-name="Rectangle 4 copy 2" class="cls-1" x="216" y="288" width="72" height="72"/>
      <rect id="Rectangle_4_copy_3-17" data-name="Rectangle 4 copy 3" class="cls-1" x="288" y="288" width="72" height="72"/>
      <rect id="Rectangle_4_copy_3-18" data-name="Rectangle 4 copy 3" class="cls-1" x="360" y="288" width="72" height="72"/>
      <rect id="Rectangle_4_copy_3-19" data-name="Rectangle 4 copy 3" class="cls-1" x="432" y="288" width="72" height="72"/>
      <rect id="Rectangle_4_copy_3-20" data-name="Rectangle 4 copy 3" class="cls-2" x="504" y="288" width="72" height="72"/>
      <rect id="Rectangle_4_copy_4-29" data-name="Rectangle 4 copy 4" class="cls-1" x="576" y="288" width="72" height="72"/>
      <rect id="Rectangle_4_copy_4-30" data-name="Rectangle 4 copy 4" class="cls-1" x="648" y="288" width="72" height="72"/>
      <rect id="Rectangle_4_copy_4-31" data-name="Rectangle 4 copy 4" class="cls-1" x="720" y="288" width="72" height="72"/>
      <rect id="Rectangle_4_copy_4-32" data-name="Rectangle 4 copy 4" class="cls-1" x="792" y="288" width="72" height="72"/>
      <rect id="Rectangle_4_copy_4-33" data-name="Rectangle 4 copy 4" class="cls-1" x="864" y="288" width="72" height="72"/>
      <rect id="Rectangle_4_copy_4-34" data-name="Rectangle 4 copy 4" class="cls-1" x="936" y="288" width="72" height="72"/>
      <rect id="Rectangle_4_copy_4-35" data-name="Rectangle 4 copy 4" class="cls-1" x="1008" y="288" width="72" height="72"/>
    </g>
    <g id="Row6">
      <rect class="cls-1" y="360" width="72" height="72"/>
      <rect id="Rectangle_4_copy-6" data-name="Rectangle 4 copy" class="cls-1" x="72" y="360" width="72" height="72"/>
      <rect id="Rectangle_4_copy_2-11" data-name="Rectangle 4 copy 2" class="cls-1" x="144" y="360" width="72" height="72"/>
      <rect id="Rectangle_4_copy_2-12" data-name="Rectangle 4 copy 2" class="cls-1" x="216" y="360" width="72" height="72"/>
      <rect id="Rectangle_4_copy_3-21" data-name="Rectangle 4 copy 3" class="cls-1" x="288" y="360" width="72" height="72"/>
      <rect id="Rectangle_4_copy_3-22" data-name="Rectangle 4 copy 3" class="cls-1" x="360" y="360" width="72" height="72"/>
      <rect id="Rectangle_4_copy_3-23" data-name="Rectangle 4 copy 3" class="cls-1" x="432" y="360" width="72" height="72"/>
      <rect id="Rectangle_4_copy_3-24" data-name="Rectangle 4 copy 3" class="cls-2" x="504" y="360" width="72" height="72"/>
      <rect id="Rectangle_4_copy_4-36" data-name="Rectangle 4 copy 4" class="cls-1" x="576" y="360" width="72" height="72"/>
      <rect id="Rectangle_4_copy_4-37" data-name="Rectangle 4 copy 4" class="cls-1" x="648" y="360" width="72" height="72"/>
      <rect id="Rectangle_4_copy_4-38" data-name="Rectangle 4 copy 4" class="cls-1" x="720" y="360" width="72" height="72"/>
      <rect id="Rectangle_4_copy_4-39" data-name="Rectangle 4 copy 4" class="cls-1" x="792" y="360" width="72" height="72"/>
      <rect id="Rectangle_4_copy_4-40" data-name="Rectangle 4 copy 4" class="cls-1" x="864" y="360" width="72" height="72"/>
      <rect id="Rectangle_4_copy_4-41" data-name="Rectangle 4 copy 4" class="cls-1" x="936" y="360" width="72" height="72"/>
      <rect id="Rectangle_4_copy_4-42" data-name="Rectangle 4 copy 4" class="cls-1" x="1008" y="360" width="72" height="72"/>
    </g>
    <g id="Row7">
      <rect class="cls-1" y="432" width="72" height="72"/>
      <rect id="Rectangle_4_copy-7" data-name="Rectangle 4 copy" class="cls-3" x="72" y="432" width="72" height="72"/>
      <rect id="Rectangle_4_copy_2-13" data-name="Rectangle 4 copy 2" class="cls-1" x="144" y="432" width="72" height="72"/>
      <rect id="Rectangle_4_copy_2-14" data-name="Rectangle 4 copy 2" class="cls-1" x="216" y="432" width="72" height="72"/>
      <rect id="Rectangle_4_copy_3-25" data-name="Rectangle 4 copy 3" class="cls-1" x="288" y="432" width="72" height="72"/>
      <rect id="Rectangle_4_copy_3-26" data-name="Rectangle 4 copy 3" class="cls-1" x="360" y="432" width="72" height="72"/>
      <rect id="Rectangle_4_copy_3-27" data-name="Rectangle 4 copy 3" class="cls-1" x="432" y="432" width="72" height="72"/>
      <rect id="Rectangle_4_copy_3-28" data-name="Rectangle 4 copy 3" class="cls-1" x="504" y="432" width="72" height="72"/>
      <rect id="Rectangle_4_copy_4-43" data-name="Rectangle 4 copy 4" class="cls-1" x="576" y="432" width="72" height="72"/>
      <rect id="Rectangle_4_copy_4-44" data-name="Rectangle 4 copy 4" class="cls-1" x="648" y="432" width="72" height="72"/>
      <rect id="Rectangle_4_copy_4-45" data-name="Rectangle 4 copy 4" class="cls-1" x="720" y="432" width="72" height="72"/>
      <rect id="Rectangle_4_copy_4-46" data-name="Rectangle 4 copy 4" class="cls-1" x="792" y="432" width="72" height="72"/>
      <rect id="Rectangle_4_copy_4-47" data-name="Rectangle 4 copy 4" class="cls-1" x="864" y="432" width="72" height="72"/>
      <rect id="Rectangle_4_copy_4-48" data-name="Rectangle 4 copy 4" class="cls-1" x="936" y="432" width="72" height="72"/>
      <rect id="Rectangle_4_copy_4-49" data-name="Rectangle 4 copy 4" class="cls-1" x="1008" y="432" width="72" height="72"/>
    </g>
    <g id="Row8">
      <rect class="cls-1" y="504" width="72" height="72"/>
      <rect id="Rectangle_4_copy-8" data-name="Rectangle 4 copy" class="cls-3" x="72" y="504" width="72" height="72"/>
      <rect id="Rectangle_4_copy_2-15" data-name="Rectangle 4 copy 2" class="cls-3" x="144" y="504" width="72" height="72"/>
      <rect id="Rectangle_4_copy_2-16" data-name="Rectangle 4 copy 2" class="cls-3" x="216" y="504" width="72" height="72"/>
      <rect id="Rectangle_4_copy_3-29" data-name="Rectangle 4 copy 3" class="cls-3" x="288" y="504" width="72" height="72"/>
      <rect id="Rectangle_4_copy_3-30" data-name="Rectangle 4 copy 3" class="cls-3" x="360" y="504" width="72" height="72"/>
      <rect id="Rectangle_4_copy_3-31" data-name="Rectangle 4 copy 3" class="cls-1" x="432" y="504" width="72" height="72"/>
      <rect id="Rectangle_4_copy_3-32" data-name="Rectangle 4 copy 3" class="cls-1" x="504" y="504" width="72" height="72"/>
      <rect id="Rectangle_4_copy_4-50" data-name="Rectangle 4 copy 4" class="cls-1" x="576" y="504" width="72" height="72"/>
      <rect id="Rectangle_4_copy_4-51" data-name="Rectangle 4 copy 4" class="cls-4" x="648" y="504" width="72" height="72"/>
      <rect id="Rectangle_4_copy_4-52" data-name="Rectangle 4 copy 4" class="cls-4" x="720" y="504" width="72" height="72"/>
      <rect id="Rectangle_4_copy_4-53" data-name="Rectangle 4 copy 4" class="cls-4" x="792" y="504" width="72" height="72"/>
      <rect id="Rectangle_4_copy_4-54" data-name="Rectangle 4 copy 4" class="cls-4" x="864" y="504" width="72" height="72"/>
      <rect id="Rectangle_4_copy_4-55" data-name="Rectangle 4 copy 4" class="cls-4" x="936" y="504" width="72" height="72"/>
      <rect id="Rectangle_4_copy_4-56" data-name="Rectangle 4 copy 4" class="cls-1" x="1008" y="504" width="72" height="72"/>
    </g>
    <g id="Row9">
      <rect class="cls-1" y="576" width="72" height="72"/>
      <rect id="Rectangle_4_copy-9" data-name="Rectangle 4 copy" class="cls-1" x="72" y="576" width="72" height="72"/>
      <rect id="Rectangle_4_copy_2-17" data-name="Rectangle 4 copy 2" class="cls-1" x="144" y="576" width="72" height="72"/>
      <rect id="Rectangle_4_copy_2-18" data-name="Rectangle 4 copy 2" class="cls-1" x="216" y="576" width="72" height="72"/>
      <rect id="Rectangle_4_copy_3-33" data-name="Rectangle 4 copy 3" class="cls-1" x="288" y="576" width="72" height="72"/>
      <rect id="Rectangle_4_copy_3-34" data-name="Rectangle 4 copy 3" class="cls-1" x="360" y="576" width="72" height="72"/>
      <rect id="Rectangle_4_copy_3-35" data-name="Rectangle 4 copy 3" class="cls-1" x="432" y="576" width="72" height="72"/>
      <rect id="Rectangle_4_copy_3-36" data-name="Rectangle 4 copy 3" class="cls-1" x="504" y="576" width="72" height="72"/>
      <rect id="Rectangle_4_copy_4-57" data-name="Rectangle 4 copy 4" class="cls-1" x="576" y="576" width="72" height="72"/>
      <rect id="Rectangle_4_copy_4-58" data-name="Rectangle 4 copy 4" class="cls-1" x="648" y="576" width="72" height="72"/>
      <rect id="Rectangle_4_copy_4-59" data-name="Rectangle 4 copy 4" class="cls-1" x="720" y="576" width="72" height="72"/>
      <rect id="Rectangle_4_copy_4-60" data-name="Rectangle 4 copy 4" class="cls-1" x="792" y="576" width="72" height="72"/>
      <rect id="Rectangle_4_copy_4-61" data-name="Rectangle 4 copy 4" class="cls-1" x="864" y="576" width="72" height="72"/>
      <rect id="Rectangle_4_copy_4-62" data-name="Rectangle 4 copy 4" class="cls-4" x="936" y="576" width="72" height="72"/>
      <rect id="Rectangle_4_copy_4-63" data-name="Rectangle 4 copy 4" class="cls-1" x="1008" y="576" width="72" height="72"/>
    </g>
    <g id="Row10">
      <rect class="cls-1" y="648" width="72" height="72"/>
      <rect id="Rectangle_4_copy-10" data-name="Rectangle 4 copy" class="cls-1" x="72" y="648" width="72" height="72"/>
      <rect id="Rectangle_4_copy_2-19" data-name="Rectangle 4 copy 2" class="cls-1" x="144" y="648" width="72" height="72"/>
      <rect id="Rectangle_4_copy_2-20" data-name="Rectangle 4 copy 2" class="cls-1" x="216" y="648" width="72" height="72"/>
      <rect id="Rectangle_4_copy_3-37" data-name="Rectangle 4 copy 3" class="cls-1" x="288" y="648" width="72" height="72"/>
      <rect id="Rectangle_4_copy_3-38" data-name="Rectangle 4 copy 3" class="cls-1" x="360" y="648" width="72" height="72"/>
      <rect id="Rectangle_4_copy_3-39" data-name="Rectangle 4 copy 3" class="cls-1" x="432" y="648" width="72" height="72"/>
      <rect id="Rectangle_4_copy_3-40" data-name="Rectangle 4 copy 3" class="cls-5" x="504" y="648" width="72" height="72"/>
      <rect id="Rectangle_4_copy_4-64" data-name="Rectangle 4 copy 4" class="cls-1" x="576" y="648" width="72" height="72"/>
      <rect id="Rectangle_4_copy_4-65" data-name="Rectangle 4 copy 4" class="cls-1" x="648" y="648" width="72" height="72"/>
      <rect id="Rectangle_4_copy_4-66" data-name="Rectangle 4 copy 4" class="cls-1" x="720" y="648" width="72" height="72"/>
      <rect id="Rectangle_4_copy_4-67" data-name="Rectangle 4 copy 4" class="cls-1" x="792" y="648" width="72" height="72"/>
      <rect id="Rectangle_4_copy_4-68" data-name="Rectangle 4 copy 4" class="cls-1" x="864" y="648" width="72" height="72"/>
      <rect id="Rectangle_4_copy_4-69" data-name="Rectangle 4 copy 4" class="cls-1" x="936" y="648" width="72" height="72"/>
      <rect id="Rectangle_4_copy_4-70" data-name="Rectangle 4 copy 4" class="cls-1" x="1008" y="648" width="72" height="72"/>
    </g>
    <g id="Row11">
      <rect class="cls-1" y="720" width="72" height="72"/>
      <rect id="Rectangle_4_copy-11" data-name="Rectangle 4 copy" class="cls-1" x="72" y="720" width="72" height="72"/>
      <rect id="Rectangle_4_copy_2-21" data-name="Rectangle 4 copy 2" class="cls-1" x="144" y="720" width="72" height="72"/>
      <rect id="Rectangle_4_copy_2-22" data-name="Rectangle 4 copy 2" class="cls-1" x="216" y="720" width="72" height="72"/>
      <rect id="Rectangle_4_copy_3-41" data-name="Rectangle 4 copy 3" class="cls-1" x="288" y="720" width="72" height="72"/>
      <rect id="Rectangle_4_copy_3-42" data-name="Rectangle 4 copy 3" class="cls-1" x="360" y="720" width="72" height="72"/>
      <rect id="Rectangle_4_copy_3-43" data-name="Rectangle 4 copy 3" class="cls-1" x="432" y="720" width="72" height="72"/>
      <rect id="Rectangle_4_copy_3-44" data-name="Rectangle 4 copy 3" class="cls-5" x="504" y="720" width="72" height="72"/>
      <rect id="Rectangle_4_copy_4-71" data-name="Rectangle 4 copy 4" class="cls-1" x="576" y="720" width="72" height="72"/>
      <rect id="Rectangle_4_copy_4-72" data-name="Rectangle 4 copy 4" class="cls-1" x="648" y="720" width="72" height="72"/>
      <rect id="Rectangle_4_copy_4-73" data-name="Rectangle 4 copy 4" class="cls-1" x="720" y="720" width="72" height="72"/>
      <rect id="Rectangle_4_copy_4-74" data-name="Rectangle 4 copy 4" class="cls-1" x="792" y="720" width="72" height="72"/>
      <rect id="Rectangle_4_copy_4-75" data-name="Rectangle 4 copy 4" class="cls-1" x="864" y="720" width="72" height="72"/>
      <rect id="Rectangle_4_copy_4-76" data-name="Rectangle 4 copy 4" class="cls-1" x="936" y="720" width="72" height="72"/>
      <rect id="Rectangle_4_copy_4-77" data-name="Rectangle 4 copy 4" class="cls-1" x="1008" y="720" width="72" height="72"/>
    </g>
    <g id="Row12">
      <rect class="cls-1" y="792" width="72" height="72"/>
      <rect id="Rectangle_4_copy-12" data-name="Rectangle 4 copy" class="cls-1" x="72" y="792" width="72" height="72"/>
      <rect id="Rectangle_4_copy_2-23" data-name="Rectangle 4 copy 2" class="cls-1" x="144" y="792" width="72" height="72"/>
      <rect id="Rectangle_4_copy_2-24" data-name="Rectangle 4 copy 2" class="cls-1" x="216" y="792" width="72" height="72"/>
      <rect id="Rectangle_4_copy_3-45" data-name="Rectangle 4 copy 3" class="cls-1" x="288" y="792" width="72" height="72"/>
      <rect id="Rectangle_4_copy_3-46" data-name="Rectangle 4 copy 3" class="cls-1" x="360" y="792" width="72" height="72"/>
      <rect id="Rectangle_4_copy_3-47" data-name="Rectangle 4 copy 3" class="cls-1" x="432" y="792" width="72" height="72"/>
      <rect id="Rectangle_4_copy_3-48" data-name="Rectangle 4 copy 3" class="cls-5" x="504" y="792" width="72" height="72"/>
      <rect id="Rectangle_4_copy_4-78" data-name="Rectangle 4 copy 4" class="cls-1" x="576" y="792" width="72" height="72"/>
      <rect id="Rectangle_4_copy_4-79" data-name="Rectangle 4 copy 4" class="cls-1" x="648" y="792" width="72" height="72"/>
      <rect id="Rectangle_4_copy_4-80" data-name="Rectangle 4 copy 4" class="cls-1" x="720" y="792" width="72" height="72"/>
      <rect id="Rectangle_4_copy_4-81" data-name="Rectangle 4 copy 4" class="cls-1" x="792" y="792" width="72" height="72"/>
      <rect id="Rectangle_4_copy_4-82" data-name="Rectangle 4 copy 4" class="cls-1" x="864" y="792" width="72" height="72"/>
      <rect id="Rectangle_4_copy_4-83" data-name="Rectangle 4 copy 4" class="cls-1" x="936" y="792" width="72" height="72"/>
      <rect id="Rectangle_4_copy_4-84" data-name="Rectangle 4 copy 4" class="cls-1" x="1008" y="792" width="72" height="72"/>
    </g>
    <g id="Row13">
      <rect class="cls-1" y="864" width="72" height="72"/>
      <rect id="Rectangle_4_copy-13" data-name="Rectangle 4 copy" class="cls-1" x="72" y="864" width="72" height="72"/>
      <rect id="Rectangle_4_copy_2-25" data-name="Rectangle 4 copy 2" class="cls-1" x="144" y="864" width="72" height="72"/>
      <rect id="Rectangle_4_copy_2-26" data-name="Rectangle 4 copy 2" class="cls-1" x="216" y="864" width="72" height="72"/>
      <rect id="Rectangle_4_copy_3-49" data-name="Rectangle 4 copy 3" class="cls-1" x="288" y="864" width="72" height="72"/>
      <rect id="Rectangle_4_copy_3-50" data-name="Rectangle 4 copy 3" class="cls-1" x="360" y="864" width="72" height="72"/>
      <rect id="Rectangle_4_copy_3-51" data-name="Rectangle 4 copy 3" class="cls-1" x="432" y="864" width="72" height="72"/>
      <rect id="Rectangle_4_copy_3-52" data-name="Rectangle 4 copy 3" class="cls-5" x="504" y="864" width="72" height="72"/>
      <rect id="Rectangle_4_copy_4-85" data-name="Rectangle 4 copy 4" class="cls-1" x="576" y="864" width="72" height="72"/>
      <rect id="Rectangle_4_copy_4-86" data-name="Rectangle 4 copy 4" class="cls-1" x="648" y="864" width="72" height="72"/>
      <rect id="Rectangle_4_copy_4-87" data-name="Rectangle 4 copy 4" class="cls-1" x="720" y="864" width="72" height="72"/>
      <rect id="Rectangle_4_copy_4-88" data-name="Rectangle 4 copy 4" class="cls-1" x="792" y="864" width="72" height="72"/>
      <rect id="Rectangle_4_copy_4-89" data-name="Rectangle 4 copy 4" class="cls-1" x="864" y="864" width="72" height="72"/>
      <rect id="Rectangle_4_copy_4-90" data-name="Rectangle 4 copy 4" class="cls-1" x="936" y="864" width="72" height="72"/>
      <rect id="Rectangle_4_copy_4-91" data-name="Rectangle 4 copy 4" class="cls-1" x="1008" y="864" width="72" height="72"/>
    </g>
    <g id="Row14">
      <rect class="cls-1" y="936" width="72" height="72"/>
      <rect id="Rectangle_4_copy-14" data-name="Rectangle 4 copy" class="cls-1" x="72" y="936" width="72" height="72"/>
      <rect id="Rectangle_4_copy_2-27" data-name="Rectangle 4 copy 2" class="cls-1" x="144" y="936" width="72" height="72"/>
      <rect id="Rectangle_4_copy_2-28" data-name="Rectangle 4 copy 2" class="cls-1" x="216" y="936" width="72" height="72"/>
      <rect id="Rectangle_4_copy_3-53" data-name="Rectangle 4 copy 3" class="cls-1" x="288" y="936" width="72" height="72"/>
      <rect id="Rectangle_4_copy_3-54" data-name="Rectangle 4 copy 3" class="cls-1" x="360" y="936" width="72" height="72"/>
      <rect id="Rectangle_4_copy_3-55" data-name="Rectangle 4 copy 3" class="cls-5" x="432" y="936" width="72" height="72"/>
      <rect id="Rectangle_4_copy_3-56" data-name="Rectangle 4 copy 3" class="cls-5" x="504" y="936" width="72" height="72"/>
      <rect id="Rectangle_4_copy_4-92" data-name="Rectangle 4 copy 4" class="cls-1" x="576" y="936" width="72" height="72"/>
      <rect id="Rectangle_4_copy_4-93" data-name="Rectangle 4 copy 4" class="cls-1" x="648" y="936" width="72" height="72"/>
      <rect id="Rectangle_4_copy_4-94" data-name="Rectangle 4 copy 4" class="cls-1" x="720" y="936" width="72" height="72"/>
      <rect id="Rectangle_4_copy_4-95" data-name="Rectangle 4 copy 4" class="cls-1" x="792" y="936" width="72" height="72"/>
      <rect id="Rectangle_4_copy_4-96" data-name="Rectangle 4 copy 4" class="cls-1" x="864" y="936" width="72" height="72"/>
      <rect id="Rectangle_4_copy_4-97" data-name="Rectangle 4 copy 4" class="cls-1" x="936" y="936" width="72" height="72"/>
      <rect id="Rectangle_4_copy_4-98" data-name="Rectangle 4 copy 4" class="cls-1" x="1008" y="936" width="72" height="72"/>
    </g>
    <g id="Row15">
      <rect class="cls-1" y="1008" width="72" height="72"/>
      <rect id="Rectangle_4_copy-15" data-name="Rectangle 4 copy" class="cls-1" x="72" y="1008" width="72" height="72"/>
      <rect id="Rectangle_4_copy_2-29" data-name="Rectangle 4 copy 2" class="cls-1" x="144" y="1008" width="72" height="72"/>
      <rect id="Rectangle_4_copy_2-30" data-name="Rectangle 4 copy 2" class="cls-1" x="216" y="1008" width="72" height="72"/>
      <rect id="Rectangle_4_copy_3-57" data-name="Rectangle 4 copy 3" class="cls-1" x="288" y="1008" width="72" height="72"/>
      <rect id="Rectangle_4_copy_3-58" data-name="Rectangle 4 copy 3" class="cls-1" x="360" y="1008" width="72" height="72"/>
      <rect id="Rectangle_4_copy_3-59" data-name="Rectangle 4 copy 3" class="cls-1" x="432" y="1008" width="72" height="72"/>
      <rect id="Rectangle_4_copy_3-60" data-name="Rectangle 4 copy 3" class="cls-1" x="504" y="1008" width="72" height="72"/>
      <rect id="Rectangle_4_copy_4-99" data-name="Rectangle 4 copy 4" class="cls-1" x="576" y="1008" width="72" height="72"/>
      <rect id="Rectangle_4_copy_4-100" data-name="Rectangle 4 copy 4" class="cls-1" x="648" y="1008" width="72" height="72"/>
      <rect id="Rectangle_4_copy_4-101" data-name="Rectangle 4 copy 4" class="cls-1" x="720" y="1008" width="72" height="72"/>
      <rect id="Rectangle_4_copy_4-102" data-name="Rectangle 4 copy 4" class="cls-1" x="792" y="1008" width="72" height="72"/>
      <rect id="Rectangle_4_copy_4-103" data-name="Rectangle 4 copy 4" class="cls-1" x="864" y="1008" width="72" height="72"/>
      <rect id="Rectangle_4_copy_4-104" data-name="Rectangle 4 copy 4" class="cls-1" x="936" y="1008" width="72" height="72"/>
      <rect id="Rectangle_4_copy_4-105" data-name="Rectangle 4 copy 4" class="cls-1" x="1008" y="1008" width="72" height="72"/>
    </g>
  </g>
  <g id="TG">
    <rect id="Green" class="cls-6" width="432" height="432"/>
    <rect class="cls-7" x="72" y="72" width="288" height="288"/>
    <g id="dots">
      <path class="cls-8" d="M277.554,108.554h22a25,25,0,0,1,25,25v22a25,25,0,0,1-25,25h-22a25,25,0,0,1-25-25v-22A25,25,0,0,1,277.554,108.554Z"/>
      <path id="Rectangle_6_copy" data-name="Rectangle 6 copy" class="cls-8" d="M133.554,252.554h22a25,25,0,0,1,25,25v22a25,25,0,0,1-25,25h-22a25,25,0,0,1-25-25v-22A25,25,0,0,1,133.554,252.554Z"/>
      <path id="Rectangle_6_copy_2" data-name="Rectangle 6 copy 2" class="cls-8" d="M133.554,108.554h22a25,25,0,0,1,25,25v22a25,25,0,0,1-25,25h-22a25,25,0,0,1-25-25v-22A25,25,0,0,1,133.554,108.554Z"/>
      <path id="Rectangle_6_copy_3" data-name="Rectangle 6 copy 3" class="cls-8" d="M277.554,252.554h22a25,25,0,0,1,25,25v22a25,25,0,0,1-25,25h-22a25,25,0,0,1-25-25v-22A25,25,0,0,1,277.554,252.554Z"/>
    </g>
    <path id="Polygon_3" data-name="Polygon 3" class="cls-9" d="M214.9,602.743l-21.984,16.27,5.827,25.649L176.478,629.9l-23.613,13.927,8.223-25.394-20.42-17.042,27.348-.932L179.008,576l8.68,24.817Z"/>
  </g>
  <g id="TB">
    <rect id="Blue" class="cls-10" x="648" y="648" width="432" height="432"/>
    <rect id="Rectangle_5_copy_3" data-name="Rectangle 5 copy 3" class="cls-7" x="720" y="720" width="288" height="288"/>
    <g id="dots_copy_3" data-name="dots copy 3">
      <path class="cls-11" d="M925.554,756.554h22a25,25,0,0,1,25,25v22a25,25,0,0,1-25,25h-22a25,25,0,0,1-25-25v-22A25,25,0,0,1,925.554,756.554Z"/>
      <path id="Rectangle_6_copy-2" data-name="Rectangle 6 copy" class="cls-11" d="M781.554,900.554h22a25,25,0,0,1,25,25v22a25,25,0,0,1-25,25h-22a25,25,0,0,1-25-25v-22A25,25,0,0,1,781.554,900.554Z"/>
      <path id="Rectangle_6_copy_2-2" data-name="Rectangle 6 copy 2" class="cls-11" d="M781.554,756.554h22a25,25,0,0,1,25,25v22a25,25,0,0,1-25,25h-22a25,25,0,0,1-25-25v-22A25,25,0,0,1,781.554,756.554Z"/>
      <path id="Rectangle_6_copy_3-2" data-name="Rectangle 6 copy 3" class="cls-11" d="M925.554,900.554h22a25,25,0,0,1,25,25v22a25,25,0,0,1-25,25h-22a25,25,0,0,1-25-25v-22A25,25,0,0,1,925.554,900.554Z"/>
    </g>
    <path id="Polygon_3_copy" data-name="Polygon 3 copy" class="cls-12" d="M861.794,477.63l21.312-17.094-6.835-25.347,22.823,13.84,23.032-14.821-7.207,25.647,21.069,16.187-27.277,2.011L898.7,502.879l-9.651-24.405Z"/>
  </g>
  <g id="TY">
    <rect id="Yellow" class="cls-13" x="648" width="432" height="432"/>
    <rect id="Rectangle_5_copy" data-name="Rectangle 5 copy" class="cls-7" x="720" y="72" width="288" height="288"/>
    <g id="dots_copy" data-name="dots copy">
      <path class="cls-14" d="M925.554,108.554h22a25,25,0,0,1,25,25v22a25,25,0,0,1-25,25h-22a25,25,0,0,1-25-25v-22A25,25,0,0,1,925.554,108.554Z"/>
      <path id="Rectangle_6_copy-3" data-name="Rectangle 6 copy" class="cls-14" d="M781.554,252.554h22a25,25,0,0,1,25,25v22a25,25,0,0,1-25,25h-22a25,25,0,0,1-25-25v-22A25,25,0,0,1,781.554,252.554Z"/>
      <path id="Rectangle_6_copy_2-3" data-name="Rectangle 6 copy 2" class="cls-14" d="M781.554,108.554h22a25,25,0,0,1,25,25v22a25,25,0,0,1-25,25h-22a25,25,0,0,1-25-25v-22A25,25,0,0,1,781.554,108.554Z"/>
      <path id="Rectangle_6_copy_3-3" data-name="Rectangle 6 copy 3" class="cls-14" d="M925.554,252.554h22a25,25,0,0,1,25,25v22a25,25,0,0,1-25,25h-22a25,25,0,0,1-25-25v-22A25,25,0,0,1,925.554,252.554Z"/>
    </g>
    <path id="Polygon_3_copy_2" data-name="Polygon 3 copy 2" class="cls-15" d="M479.849,215.985l-17.879-20.77-25.248,7.671,13.158-23.3-15.652-22.567,26.011,6.373,15.574-21.617,2.918,27.234,25.278,9.206L479.8,188.678Z"/>
  </g>
  <g id="TR">
    <rect id="Red" class="cls-16" y="648" width="432" height="432"/>
    <rect id="Rectangle_5_copy_2" data-name="Rectangle 5 copy 2" class="cls-7" x="72" y="720" width="288" height="288"/>
    <g id="dots_copy_2" data-name="dots copy 2">
      <path class="cls-17" d="M277.554,756.554h22a25,25,0,0,1,25,25v22a25,25,0,0,1-25,25h-22a25,25,0,0,1-25-25v-22A25,25,0,0,1,277.554,756.554Z"/>
      <path id="Rectangle_6_copy-4" data-name="Rectangle 6 copy" class="cls-17" d="M133.554,900.554h22a25,25,0,0,1,25,25v22a25,25,0,0,1-25,25h-22a25,25,0,0,1-25-25v-22A25,25,0,0,1,133.554,900.554Z"/>
      <path id="Rectangle_6_copy_2-4" data-name="Rectangle 6 copy 2" class="cls-17" d="M133.554,756.554h22a25,25,0,0,1,25,25v22a25,25,0,0,1-25,25h-22a25,25,0,0,1-25-25v-22A25,25,0,0,1,133.554,756.554Z"/>
      <path id="Rectangle_6_copy_3-4" data-name="Rectangle 6 copy 3" class="cls-17" d="M277.554,900.554h22a25,25,0,0,1,25,25v22a25,25,0,0,1-25,25h-22a25,25,0,0,1-25-25v-22A25,25,0,0,1,277.554,900.554Z"/>
    </g>
    <path id="Polygon_3_copy_3" data-name="Polygon 3 copy 3" class="cls-18" d="M643.941,878.917l-15.435,22.646,13.944,22.4-25.908-6.681L598.8,938.244l-0.576-26.775-24.912-9.448,25.551-9.868,2.35-26.8,16.368,20.676Z"/>
  </g>
  <g id="Center">
    <path id="Polygon_1_copy" data-name="Polygon 1 copy" class="cls-11" d="M539.445,540L648,431.983V648.017Z"/>
    <path id="Polygon_1_copy_2" data-name="Polygon 1 copy 2" class="cls-14" d="M540,540.555L431.983,432H648.017Z"/>
    <path id="Polygon_1_copy_3" data-name="Polygon 1 copy 3" class="cls-17" d="M540,539.445L648.017,648H431.983Z"/>
    <path id="Polygon_1" data-name="Polygon 1" class="cls-8" d="M540.555,540L432,648.017V431.983Z"/>
  </g>
  <g id="Arrows">
    <g id="Arrow-Set1">
      <g id="Arrow">
        <path class="cls-19" d="M468.576,920.374H468.12V816.452h0.456V920.374Z"/>
        <path id="Polygon_4" data-name="Polygon 4" class="cls-19" d="M468.348,808.859l8.45,15.185H459.9Z"/>
        <path class="cls-19" d="M468.181,898.556l0.326,0.34-7.828,8.181-0.326-.34Zm0.465,0.345,0.317-.35,8.288,8.181-0.316.35Z"/>
        <path id="Shape_2_copy" data-name="Shape 2 copy" class="cls-19" d="M468.181,902.827l0.326,0.34-7.828,8.181-0.326-.341Zm0.465,0.345,0.317-.35L477.251,911l-0.316.349Z"/>
        <path id="Shape_2_copy_2" data-name="Shape 2 copy 2" class="cls-19" d="M468.181,894.285l0.326,0.34-7.828,8.181-0.326-.34Zm0.465,0.345,0.317-.35,8.288,8.181-0.316.35Z"/>
        <path id="Shape_2_copy_3" data-name="Shape 2 copy 3" class="cls-19" d="M467.845,906.641l0.327,0.344-7.859,8.274-0.326-.344Zm0.467,0.349,0.318-.354,8.321,8.274-0.317.354Z"/>
      </g>
      <g id="Arrow_copy" data-name="Arrow copy">
        <path class="cls-19" d="M471.609,688.23l-0.319.32-73.327-73.327,0.319-.32Z"/>
        <path id="Polygon_4-2" data-name="Polygon 4" class="cls-19" d="M392.765,609.706l16.625,4.8-11.82,11.82Z"/>
        <path class="cls-19" d="M455.938,673.112l0.468,0.012,0.3,11.247-0.468-.012Zm0.569-.082-0.026-.468,11.569-.024,0.026,0.468Z"/>
        <path id="Shape_2_copy-2" data-name="Shape 2 copy" class="cls-19" d="M458.952,676.125l0.467,0.013,0.3,11.247-0.468-.013Zm0.568-.082-0.025-.468,11.569-.024,0.025,0.468Z"/>
        <path id="Shape_2_copy_2-2" data-name="Shape 2 copy 2" class="cls-19" d="M452.925,670.1l0.468,0.013,0.3,11.247-0.468-.013Zm0.569-.081-0.026-.468,11.569-.025,0.026,0.468Z"/>
        <path id="Shape_2_copy_3-2" data-name="Shape 2 copy 3" class="cls-19" d="M461.408,679.051l0.471,0.014,0.342,11.335-0.471-.014Zm0.573-.08-0.028-.472,11.658,0.019,0.028,0.471Z"/>
      </g>
      <g id="Arrow_copy_2" data-name="Arrow copy 2">
        <path class="cls-19" d="M471.609,688.23l-0.319.32-73.327-73.327,0.319-.32Z"/>
        <path id="Polygon_4-3" data-name="Polygon 4" class="cls-19" d="M392.765,609.706l16.625,4.8-11.82,11.82Z"/>
        <path class="cls-19" d="M455.938,673.112l0.468,0.012,0.3,11.247-0.468-.012Zm0.569-.082-0.026-.468,11.569-.024,0.026,0.468Z"/>
        <path id="Shape_2_copy-3" data-name="Shape 2 copy" class="cls-19" d="M458.952,676.125l0.467,0.013,0.3,11.247-0.468-.013Zm0.568-.082-0.025-.468,11.569-.024,0.025,0.468Z"/>
        <path id="Shape_2_copy_2-3" data-name="Shape 2 copy 2" class="cls-19" d="M452.925,670.1l0.468,0.013,0.3,11.247-0.468-.013Zm0.569-.081-0.026-.468,11.569-.025,0.026,0.468Z"/>
        <path id="Shape_2_copy_3-3" data-name="Shape 2 copy 3" class="cls-19" d="M461.408,679.051l0.471,0.014,0.342,11.335-0.471-.014Zm0.573-.08-0.028-.472,11.658,0.019,0.028,0.471Z"/>
      </g>
      <g id="Arrow_copy_3" data-name="Arrow copy 3">
        <path class="cls-19" d="M17.812,544.317v-0.45L121.249,544v0.45Z"/>
        <path id="Polygon_4-4" data-name="Polygon 4" class="cls-19" d="M128.807,544.232l-15.1,8.318-0.021-16.674Z"/>
        <path class="cls-19" d="M39.528,543.955l-0.338.321-8.152-7.733,0.338-.321Zm-0.343.459,0.349,0.312L31.4,552.893l-0.349-.313Z"/>
        <path id="Shape_2_copy-4" data-name="Shape 2 copy" class="cls-19" d="M35.277,543.95l-0.338.32-8.152-7.733,0.338-.32Zm-0.343.458,0.349,0.313-8.132,8.166-0.349-.312Z"/>
        <path id="Shape_2_copy_2-4" data-name="Shape 2 copy 2" class="cls-19" d="M43.779,543.96l-0.338.321-8.152-7.733,0.338-.321Zm-0.343.459,0.349,0.312L35.652,552.9l-0.349-.312Z"/>
        <path id="Shape_2_copy_3-4" data-name="Shape 2 copy 3" class="cls-19" d="M31.48,543.614l-0.342.322-8.245-7.764,0.342-.322Zm-0.347.46,0.353,0.314-8.225,8.2-0.352-.314Z"/>
      </g>
    </g>
    <g id="Arrow-Set2">
      <g id="Arrow-2" data-name="Arrow">
        <path class="cls-19" d="M160.075,466.879v-0.457H263.858v0.457H160.075Z"/>
        <path id="Polygon_4-5" data-name="Polygon 4" class="cls-19" d="M271.44,466.65L256.275,475.1V458.2Z"/>
        <path class="cls-19" d="M181.864,466.484l-0.34.325-8.17-7.829,0.34-.325Zm-0.345.465,0.35,0.316-8.17,8.289-0.349-.316Z"/>
        <path id="Shape_2_copy-5" data-name="Shape 2 copy" class="cls-19" d="M177.6,466.484l-0.34.325-8.17-7.829,0.34-.325Zm-0.345.465,0.35,0.316-8.17,8.289-0.349-.316Z"/>
        <path id="Shape_2_copy_2-5" data-name="Shape 2 copy 2" class="cls-19" d="M186.129,466.484l-0.34.325-8.17-7.829,0.34-.325Zm-0.345.465,0.35,0.316-8.17,8.289-0.349-.316Z"/>
        <path id="Shape_2_copy_3-5" data-name="Shape 2 copy 3" class="cls-19" d="M173.79,466.148l-0.344.327-8.262-7.86,0.343-.327Zm-0.348.467,0.353,0.317-8.263,8.323-0.353-.318Z"/>
      </g>
      <g id="Arrow_copy-2" data-name="Arrow copy">
        <path class="cls-19" d="M391.907,469.912l-0.319-.319,73.228-73.338,0.319,0.319Z"/>
        <path id="Polygon_4-6" data-name="Polygon 4" class="cls-19" d="M470.326,391.056l-4.8,16.628-11.805-11.823Z"/>
        <path class="cls-19" d="M407.005,454.239l-0.013.468-11.231.3,0.012-.468Zm0.081,0.569,0.468-.026,0.024,11.571-0.467.025Z"/>
        <path id="Shape_2_copy-6" data-name="Shape 2 copy" class="cls-19" d="M404,457.253l-0.012.468-11.232.3,0.013-.468Zm0.082,0.569,0.467-.026,0.025,11.571-0.467.025Z"/>
        <path id="Shape_2_copy_2-6" data-name="Shape 2 copy 2" class="cls-19" d="M410.014,451.225l-0.012.468-11.232.3,0.012-.468Zm0.082,0.569,0.467-.026,0.025,11.571-0.468.025Z"/>
        <path id="Shape_2_copy_3-6" data-name="Shape 2 copy 3" class="cls-19" d="M401.073,459.709l-0.014.472-11.319.341,0.014-.471Zm0.081,0.573,0.471-.027-0.019,11.659-0.471.028Z"/>
      </g>
      <g id="Arrow_copy_2-2" data-name="Arrow copy 2">
        <path class="cls-19" d="M391.907,469.912l-0.319-.319,73.228-73.338,0.319,0.319Z"/>
        <path id="Polygon_4-7" data-name="Polygon 4" class="cls-19" d="M470.326,391.056l-4.8,16.628-11.805-11.823Z"/>
        <path class="cls-19" d="M407.005,454.239l-0.013.468-11.231.3,0.012-.468Zm0.081,0.569,0.468-.026,0.024,11.571-0.467.025Z"/>
        <path id="Shape_2_copy-7" data-name="Shape 2 copy" class="cls-19" d="M404,457.253l-0.012.468-11.232.3,0.013-.468Zm0.082,0.569,0.467-.026,0.025,11.571-0.467.025Z"/>
        <path id="Shape_2_copy_2-7" data-name="Shape 2 copy 2" class="cls-19" d="M410.014,451.225l-0.012.468-11.232.3,0.012-.468Zm0.082,0.569,0.467-.026,0.025,11.571-0.468.025Z"/>
        <path id="Shape_2_copy_3-7" data-name="Shape 2 copy 3" class="cls-19" d="M401.073,459.709l-0.014.472-11.319.341,0.014-.471Zm0.081,0.573,0.471-.027-0.019,11.659-0.471.028Z"/>
      </g>
      <g id="Arrow_copy_3-2" data-name="Arrow copy 3">
        <path class="cls-19" d="M535.626,16.046h0.45L535.945,119.5H535.5Z"/>
        <path id="Polygon_4-8" data-name="Polygon 4" class="cls-19" d="M535.711,127.058L527.4,111.952l16.652-.021Z"/>
        <path class="cls-19" d="M535.988,37.766l-0.321-.338,7.723-8.154,0.32,0.338Zm-0.458-.343-0.312.349-8.156-8.134,0.312-.349Z"/>
        <path id="Shape_2_copy-8" data-name="Shape 2 copy" class="cls-19" d="M535.993,33.514l-0.32-.338,7.722-8.153,0.321,0.338Zm-0.458-.343-0.312.349-8.155-8.134,0.311-.349Z"/>
        <path id="Shape_2_copy_2-8" data-name="Shape 2 copy 2" class="cls-19" d="M535.982,42.017l-0.32-.338,7.723-8.154,0.32,0.338Zm-0.457-.343-0.312.349-8.156-8.133,0.312-.349Z"/>
        <path id="Shape_2_copy_3-8" data-name="Shape 2 copy 3" class="cls-19" d="M536.329,29.717l-0.322-.342,7.754-8.246,0.321,0.342Zm-0.46-.347-0.313.353L527.368,21.5l0.313-.353Z"/>
      </g>
    </g>
    <g id="Arrow-Set3">
      <g id="Arrow-3" data-name="Arrow">
        <path class="cls-19" d="M618.66,167.829h0.456V271.611H618.66V167.829Z"/>
        <path id="Polygon_4-9" data-name="Polygon 4" class="cls-19" d="M618.888,279.194l-8.452-15.165h16.9Z"/>
        <path class="cls-19" d="M619.055,189.618l-0.326-.34,7.829-8.17,0.326,0.34Zm-0.465-.345-0.317.349-8.289-8.169,0.316-.35Z"/>
        <path id="Shape_2_copy-9" data-name="Shape 2 copy" class="cls-19" d="M619.055,185.353l-0.326-.34,7.829-8.17,0.326,0.34Zm-0.465-.345-0.317.35-8.289-8.17,0.316-.35Z"/>
        <path id="Shape_2_copy_2-9" data-name="Shape 2 copy 2" class="cls-19" d="M619.055,193.883l-0.326-.34,7.829-8.17,0.326,0.34Zm-0.465-.345-0.317.35-8.289-8.17,0.316-.349Z"/>
        <path id="Shape_2_copy_3-9" data-name="Shape 2 copy 3" class="cls-19" d="M619.391,181.544l-0.327-.344,7.86-8.263,0.327,0.344Zm-0.467-.349-0.318.354-8.322-8.263,0.317-.354Z"/>
      </g>
      <g id="Arrow_copy-3" data-name="Arrow copy">
        <path class="cls-19" d="M615.626,399.66l0.32-.318,73.338,73.228-0.32.319Z"/>
        <path id="Polygon_4-10" data-name="Polygon 4" class="cls-19" d="M694.482,478.079l-16.627-4.8,11.822-11.805Z"/>
        <path class="cls-19" d="M631.3,414.759l-0.468-.013-0.3-11.232L631,403.527Zm-0.569.081,0.025,0.468-11.57.024-0.026-.467Z"/>
        <path id="Shape_2_copy-10" data-name="Shape 2 copy" class="cls-19" d="M628.286,411.749l-0.468-.012-0.3-11.232,0.468,0.012Zm-0.569.082,0.026,0.467-11.571.025-0.026-.468Z"/>
        <path id="Shape_2_copy_2-10" data-name="Shape 2 copy 2" class="cls-19" d="M634.313,417.768l-0.467-.012-0.3-11.232,0.468,0.012Zm-0.568.082,0.025,0.467-11.57.025-0.026-.468Z"/>
        <path id="Shape_2_copy_3-10" data-name="Shape 2 copy 3" class="cls-19" d="M625.829,408.827l-0.471-.014-0.342-11.319,0.471,0.014Zm-0.573.08,0.028,0.471-11.66-.018-0.027-.471Z"/>
      </g>
      <g id="Arrow_copy_2-3" data-name="Arrow copy 2">
        <path class="cls-19" d="M615.626,399.66l0.32-.318,73.338,73.228-0.32.319Z"/>
        <path id="Polygon_4-11" data-name="Polygon 4" class="cls-19" d="M694.482,478.079l-16.627-4.8,11.822-11.805Z"/>
        <path class="cls-19" d="M631.3,414.759l-0.468-.013-0.3-11.232L631,403.527Zm-0.569.081,0.025,0.468-11.57.024-0.026-.467Z"/>
        <path id="Shape_2_copy-11" data-name="Shape 2 copy" class="cls-19" d="M628.286,411.749l-0.468-.012-0.3-11.232,0.468,0.012Zm-0.569.082,0.026,0.467-11.571.025-0.026-.468Z"/>
        <path id="Shape_2_copy_2-11" data-name="Shape 2 copy 2" class="cls-19" d="M634.313,417.768l-0.467-.012-0.3-11.232,0.468,0.012Zm-0.568.082,0.025,0.467-11.57.025-0.026-.468Z"/>
        <path id="Shape_2_copy_3-11" data-name="Shape 2 copy 3" class="cls-19" d="M625.829,408.827l-0.471-.014-0.342-11.319,0.471,0.014Zm-0.573.08,0.028,0.471-11.66-.018-0.027-.471Z"/>
      </g>
      <g id="Arrow_copy_3-3" data-name="Arrow copy 3">
        <path class="cls-19" d="M1069.49,543.38v0.45L966.039,543.7v-0.45Z"/>
        <path id="Polygon_4-12" data-name="Polygon 4" class="cls-19" d="M958.48,543.465l15.106-8.307,0.021,16.652Z"/>
        <path class="cls-19" d="M1047.77,543.742l0.34-.321,8.15,7.723-0.33.32Zm0.35-.458-0.35-.312,8.13-8.156,0.35,0.312Z"/>
        <path id="Shape_2_copy-12" data-name="Shape 2 copy" class="cls-19" d="M1052.02,543.747l0.34-.32,8.16,7.722-0.34.321Zm0.35-.458-0.35-.312,8.13-8.156,0.35,0.312Z"/>
        <path id="Shape_2_copy_2-12" data-name="Shape 2 copy 2" class="cls-19" d="M1043.52,543.736l0.34-.32,8.15,7.723-0.34.32Zm0.34-.458-0.34-.312,8.13-8.155,0.35,0.312Z"/>
        <path id="Shape_2_copy_3-12" data-name="Shape 2 copy 3" class="cls-19" d="M1055.82,544.083l0.34-.322,8.25,7.753-0.34.322Zm0.35-.46-0.35-.313,8.22-8.188,0.35,0.313Z"/>
      </g>
    </g>
    <g id="Arrow-Set4">
      <g id="Arrow-4" data-name="Arrow">
        <path class="cls-19" d="M913.279,615.337v0.456H809.5v-0.456H913.279Z"/>
        <path id="Polygon_4-13" data-name="Polygon 4" class="cls-19" d="M801.914,615.565l15.164-8.452v16.9Z"/>
        <path class="cls-19" d="M891.49,615.732l0.34-.326L900,623.235l-0.339.326Zm0.344-.466-0.349-.316,8.17-8.289L900,606.977Z"/>
        <path id="Shape_2_copy-13" data-name="Shape 2 copy" class="cls-19" d="M895.755,615.732l0.34-.326,8.169,7.829-0.339.326Zm0.345-.466-0.35-.316,8.17-8.289,0.349,0.316Z"/>
        <path id="Shape_2_copy_2-13" data-name="Shape 2 copy 2" class="cls-19" d="M887.225,615.732l0.34-.326,8.169,7.829-0.34.326Zm0.344-.466-0.349-.316,8.17-8.289,0.349,0.316Z"/>
        <path id="Shape_2_copy_3-13" data-name="Shape 2 copy 3" class="cls-19" d="M899.564,616.068l0.343-.327,8.263,7.86-0.343.327Zm0.348-.468-0.353-.317,8.263-8.322,0.353,0.317Z"/>
      </g>
      <g id="Arrow_copy-4" data-name="Arrow copy">
        <path class="cls-19" d="M681.447,612.3l0.319,0.32-73.228,73.338-0.319-.32Z"/>
        <path id="Polygon_4-14" data-name="Polygon 4" class="cls-19" d="M603.028,691.159l4.8-16.627,11.8,11.822Z"/>
        <path class="cls-19" d="M666.349,627.977l0.012-.468,11.232-.3-0.012.468Zm-0.082-.569-0.467.025-0.024-11.57,0.467-.026Z"/>
        <path id="Shape_2_copy-14" data-name="Shape 2 copy" class="cls-19" d="M669.358,624.963l0.013-.468,11.232-.3-0.013.468Zm-0.081-.569-0.468.026-0.024-11.571,0.467-.026Z"/>
        <path id="Shape_2_copy_2-14" data-name="Shape 2 copy 2" class="cls-19" d="M663.34,630.99l0.012-.467,11.232-.3-0.013.468Zm-0.082-.568-0.467.025-0.025-11.57,0.467-.026Z"/>
        <path id="Shape_2_copy_3-14" data-name="Shape 2 copy 3" class="cls-19" d="M672.28,622.506l0.015-.471,11.319-.342-0.014.471Zm-0.08-.573-0.471.028,0.018-11.66,0.471-.027Z"/>
      </g>
      <g id="Arrow_copy_2-4" data-name="Arrow copy 2">
        <path class="cls-19" d="M681.447,612.3l0.319,0.32-73.228,73.338-0.319-.32Z"/>
        <path id="Polygon_4-15" data-name="Polygon 4" class="cls-19" d="M603.028,691.159l4.8-16.627,11.8,11.822Z"/>
        <path class="cls-19" d="M666.349,627.977l0.012-.468,11.232-.3-0.012.468Zm-0.082-.569-0.467.025-0.024-11.57,0.467-.026Z"/>
        <path id="Shape_2_copy-15" data-name="Shape 2 copy" class="cls-19" d="M669.358,624.963l0.013-.468,11.232-.3-0.013.468Zm-0.081-.569-0.468.026-0.024-11.571,0.467-.026Z"/>
        <path id="Shape_2_copy_2-15" data-name="Shape 2 copy 2" class="cls-19" d="M663.34,630.99l0.012-.467,11.232-.3-0.013.468Zm-0.082-.568-0.467.025-0.025-11.57,0.467-.026Z"/>
        <path id="Shape_2_copy_3-15" data-name="Shape 2 copy 3" class="cls-19" d="M672.28,622.506l0.015-.471,11.319-.342-0.014.471Zm-0.08-.573-0.471.028,0.018-11.66,0.471-.027Z"/>
      </g>
      <g id="Arrow_copy_3-4" data-name="Arrow copy 3">
        <path class="cls-19" d="M537.728,1066.17h-0.45l0.13-103.454h0.45Z"/>
        <path id="Polygon_4-16" data-name="Polygon 4" class="cls-19" d="M537.643,955.157l8.307,15.106-16.652.021Z"/>
        <path class="cls-19" d="M537.366,1044.45l0.32,0.34-7.722,8.15-0.321-.34Zm0.458,0.34,0.312-.35,8.156,8.14-0.312.35Z"/>
        <path id="Shape_2_copy-16" data-name="Shape 2 copy" class="cls-19" d="M537.361,1048.7l0.32,0.34-7.723,8.15-0.32-.34Zm0.458,0.34,0.311-.34,8.156,8.13-0.312.35Z"/>
        <path id="Shape_2_copy_2-16" data-name="Shape 2 copy 2" class="cls-19" d="M537.371,1040.2l0.321,0.34-7.723,8.15-0.32-.34Zm0.458,0.34,0.312-.35,8.156,8.14-0.312.34Z"/>
        <path id="Shape_2_copy_3-16" data-name="Shape 2 copy 3" class="cls-19" d="M537.025,1052.5l0.322,0.34-7.754,8.25-0.321-.35Zm0.46,0.35,0.313-.36,8.188,8.23-0.313.35Z"/>
      </g>
    </g>
  </g>
</svg>
